Jim Phelps is the head of a super-secret government agency ("Impossible Missions"), and is often given secret anonymous covert missions to attempt; quite often they are unmasking of criminals or the rescuing of hostages. He picks his team depending on which tasks need to be done. One thing is vital on an Impossible Mission: the mission must be carried out in entire secrecy, often relying on high-tech equipment and elaborate deceptions.  

This is the full first TV Season!

INFO:

Info:
Format                                   : AVI
Format/Info                              : Audio Video Interleave
File size                                : 350 MiB
Overall bit rate mode                    : Variable
Overall bit rate                         : 1 014 Kbps
Writing application                      : VirtualDubMod 1.5.10.2 (build 2540/release)
Writing library                          : VirtualDubMod build 2540/release

ideo
ID                                       : 0
Format                                   : MPEG-4 Visual
Format profile                           : Advanced Simple@L5
Format settings, BVOP                    : 1
Format settings, QPel                    : No
Format settings, GMC                     : No warppoints
Format settings, Matrix                  : Default (H.263)
Muxing mode                              : Packed bitstream
Codec ID                                 : XVID
Codec ID/Hint                            : XviD
Bit rate                                 : 920 Kbps
Width                                    : 512 pixels
Height                                   : 384 pixels
Display aspect ratio                     : 4:3
Frame rate                               : 25.000 fps
Color space                              : YUV
Chroma subsampling                       : 4:2:0
Bit depth                                : 8 bits
Scan type                                : Progressive
Compression mode                         : Lossy
Bits/(Pixel*Frame)                       : 0.187
Stream size                              : 317 MiB (91%)


Audio
ID                                       : 1
Format                                   : MPEG Audio
Format version                           : Version 1
Format profile                           : Layer 3
Codec ID                                 : 55
Codec ID/Hint                            : MP3
Bit rate mode                            : Variable
Bit rate                                 : 81.8 Kbps
Minimum bit rate                         : 48.0 Kbps
Channel(s)                               : 1 channel
Sampling rate                            : 48.0 KHz
Compression mode                         : Lossy
Stream size                              : 28.2 MiB (8%)
Alignment                                : Aligned on interleaves
Interleave, duration                     : 24 ms (0.60 video frame)
Interleave, preload duration             : 225 ms
Writing library                          : LAME3.96r
Encoding settings                        : -m m -V 1 -q 2 -lowpass 19.5 --vbr-new -b 48

Size: 9.56GB

*Note: A couple of the files are not in order but each file is named and numbered to make watching in order easy.
